<svg width="31" height="31" viewBox="0 0 31 31" fill="none" xmlns="http://www.w3.org/2000/svg">
<path d="M21.9583 25.8334C21.9583 23.6933 19.0668 21.9584 15.5 21.9584C11.9332 21.9584 9.04167 23.6933 9.04167 25.8334M27.125 21.9589C27.125 20.3699 25.531 19.0042 23.25 18.4063M3.875 21.9589C3.875 20.3699 5.46904 19.0042 7.75 18.4063M23.25 13.2217C24.0428 12.5121 24.5417 11.481 24.5417 10.3334C24.5417 8.19327 22.8068 6.45837 20.6667 6.45837C19.6742 6.45837 18.7689 6.83148 18.0833 7.44507M7.75 13.2217C6.95724 12.5121 6.45833 11.481 6.45833 10.3334C6.45833 8.19327 8.19323 6.45837 10.3333 6.45837C11.3258 6.45837 12.2311 6.83148 12.9167 7.44507M15.5 18.0834C13.3599 18.0834 11.625 16.3485 11.625 14.2084C11.625 12.0683 13.3599 10.3334 15.5 10.3334C17.6401 10.3334 19.375 12.0683 19.375 14.2084C19.375 16.3485 17.6401 18.0834 15.5 18.0834Z" stroke="black" stroke-opacity="0.6" stroke-width="2" stroke-linecap="round" stroke-linejoin="round"/>
</svg>
